<svg width="1184" height="271" viewBox="0 0 1184 271" fill="none" xmlns="http://www.w3.org/2000/svg">
<path d="M1146.94 32.1121L1151.28 48.2106C1151.81 50.172 1152.07 51.1592 1152.6 51.9622C1153.06 52.673 1153.67 53.2785 1154.38 53.7392C1155.19 54.2657 1156.18 54.529 1158.14 55.0555L1174.29 59.3862L1158.14 63.7169C1156.18 64.2434 1155.19 64.5067 1154.38 65.0332C1153.67 65.4939 1153.06 66.0994 1152.6 66.8102C1152.07 67.6132 1151.81 68.6004 1151.28 70.5618L1146.94 86.6603L1142.6 70.5618C1142.07 68.6004 1141.8 67.6132 1141.28 66.8102C1140.81 66.0994 1140.21 65.4939 1139.49 65.0332C1138.69 64.5067 1137.7 64.2434 1135.73 63.7169L1119.59 59.3862L1135.73 55.0555C1137.7 54.529 1138.69 54.2657 1139.49 53.7392C1140.21 53.2785 1140.81 52.673 1141.28 51.9622C1141.8 51.1592 1142.07 50.172 1142.6 48.2106L1146.94 32.1121Z" fill="#E0994B"/>
<path d="M414.745 175.551C357.014 175.485 299.297 175.419 241.566 175.34C239.217 175.34 236.353 175.34 233.291 175.34C233.264 175.209 233.04 172.616 233.04 171.628C232.947 141.88 232.895 112.131 232.881 82.3819C232.881 81.6711 233.409 80.9471 233.7 80.1968C234.479 79.9335 235.204 79.4728 235.944 79.4728C294.427 79.1569 352.897 78.8673 411.38 78.5777C411.908 76.1031 412.502 73.6415 413.135 71.2195C390.249 71.18 367.362 71.1405 344.489 71.101C335.844 71.0879 327.212 71.101 318.567 71.0089C316.534 70.9957 314.317 71.2985 312.773 69.2714C312.68 68.5474 312.588 67.7707 312.496 67.0073C311.492 58.4775 307.85 54.6997 299.521 54.3838C292.724 54.1205 285.9 54.16 279.116 54.5944C271.263 55.1078 265.245 58.8856 261.734 66.1385C261.061 67.5206 260.348 68.8896 259.569 70.4429C255.095 71.4696 250.634 71.101 246.225 71.2063C241.513 71.3116 236.788 71.1405 232.09 71.4564C227.101 71.7855 225.635 73.4178 225.292 78.275C225.121 80.618 225.16 82.9742 225.173 85.3173C225.279 114.829 225.385 144.328 225.53 173.84C225.583 183.186 225.635 183.186 235.416 183.172C294.862 183.133 354.296 183.08 413.742 183.041C414.059 180.553 414.389 178.052 414.732 175.564L414.745 175.551ZM277.744 62.5186C285.267 62.2027 292.816 62.2027 300.353 62.3212C303.481 62.3738 304.59 63.5585 305.316 66.3096C305.962 68.7317 304.92 70.772 302.504 70.7851C291.351 70.8773 280.199 70.7588 269.046 70.693C268.874 70.693 268.689 70.3507 267.897 69.5215C270.181 65.4672 273.243 62.7161 277.73 62.5318L277.744 62.5186Z" fill="#1C5D66"/>
<path d="M412 209.539C353.596 209.42 295.192 209.302 236.788 209.183H215.67C215.288 205.826 215.314 200.89 215.129 197.507C214.443 185.331 211.104 173.945 205.613 163.046C189.3 130.691 150.575 109.024 108.128 118.568C83.7634 124.044 65.6945 138.365 53.367 159.782C43.5472 176.867 39.7196 195.256 43.4416 214.856C44.1279 218.437 45.1178 221.965 45.857 225.545C46.2133 227.269 46.3321 229.046 46.5829 231.021C44.933 231.376 43.6792 231.85 42.4385 231.863C33.7934 231.942 25.1615 231.982 16.5164 231.863C14.4706 231.837 12.372 231.31 10.445 230.613C9.37596 230.231 8.61044 229.007 7.29058 227.783C8.90081 225.993 10.0755 224.294 11.6197 223.044C16.7012 218.937 19.0505 213.632 18.6018 207.222C18.219 201.772 17.5063 196.336 16.7672 190.913C16.16 186.49 15.0778 182.212 12.2269 178.552C11.4481 177.565 10.9202 176.262 10.643 175.025C8.66323 166.008 13.5731 154.793 21.5055 150.015C23.0761 149.067 24.6732 148.185 26.191 147.171C27.3657 146.382 28.0388 145.105 27.3921 143.815C26.9961 143.025 25.9666 142.301 25.0823 142.051C23.4457 141.59 21.7035 141.498 19.8161 141.222C19.1297 131.586 23.7493 125.334 30.7445 120.437C34.8493 117.554 39.5084 115.724 44.3919 114.645C48.4703 113.737 52.641 113.25 56.7458 112.473C59.5571 111.933 62.4476 111.499 65.0873 110.485C67.9118 109.406 68.1626 106.352 66.1168 104.022C65.2061 102.982 62.7116 103.404 63.3319 100.824C67.5555 96.7168 73.1913 95.361 78.7611 93.913C101.582 87.9896 124.983 85.4886 148.318 82.8164C163.496 81.0789 178.741 79.9469 193.985 78.8148C199.832 78.3804 205.112 76.7877 210.272 74.234C225.041 66.9153 239.864 59.7282 254.62 52.3963C276.397 41.5761 298.188 30.7692 320.56 21.1732C330.683 16.8293 341.031 13.0778 351.933 11.3534C365.118 9.27366 378.396 7.89152 391.78 7.81254C412.726 7.70723 433.646 7.91785 454.592 8.76029C465.217 9.19468 475.828 9.80018 486.44 10.4978C486.229 8.15478 486.005 5.8249 485.793 3.49501C481.543 3.21859 477.307 2.96848 473.057 2.73155C438.82 0.836047 404.595 -1.4017 370.279 1.1388C351.854 2.50777 333.956 5.90388 317.102 13.6043C299.271 21.7524 281.558 30.1768 263.898 38.7066C245.288 47.6839 226.77 56.8323 208.306 66.0992C201.851 69.3373 195.107 70.9037 188.006 71.5487C169.766 73.2073 151.525 74.8527 133.298 76.7087C117.143 78.3541 101.146 80.8683 85.2812 84.4487C65.2853 88.9636 47.2956 97.5724 30.7445 109.446C19.7369 117.33 12.5832 127.374 12.0685 141.34C11.9365 144.841 10.5902 147.843 8.74242 150.804C6.97381 153.648 5.20519 156.715 4.41327 159.926C2.44668 167.864 2.60506 175.972 3.84573 184.041C4.26809 186.753 5.24479 189.215 7.75253 190.491C11.0654 192.189 11.7649 195.085 11.9629 198.31C12.1081 200.653 12.0553 203.01 12.1741 205.353C12.438 210.973 10.9202 215.686 5.64075 218.582C4.95442 218.95 4.34728 219.477 3.75334 219.99C-1.88247 224.874 -1.07735 232.732 5.53516 236.194C7.34337 237.142 9.44195 237.787 11.4745 238.063C26.6002 240.077 41.805 238.906 56.9702 238.998C58.6068 238.998 60.0851 238.313 60.547 236.536C60.9826 234.851 60.4678 233.127 58.9104 232.548C54.8452 231.021 53.7365 227.625 52.9314 224.005C51.9679 219.674 50.8724 215.343 50.3181 210.96C48.2855 194.73 50.0673 179.039 58.6992 164.823C72.1486 142.669 91.181 128.572 117.42 124.636C152.396 119.384 190.408 140.761 202.498 174.906C206.115 185.121 207.923 195.572 208.187 206.366C208.24 208.367 207.962 210.434 208.306 212.421C208.556 213.856 209.269 215.383 210.681 215.778C210.84 215.831 211.236 215.975 211.645 216.028C217.637 216.344 223.418 216.383 229.41 216.383C290.388 216.357 351.379 216.318 412.356 216.265C412.158 214.001 412.053 211.75 412.026 209.552L412 209.539Z" fill="#1C5D66"/>
<path d="M415.392 231.981C345.637 231.889 275.882 231.797 206.115 231.718C204.293 231.718 202.445 231.718 200.637 231.968C198.539 232.271 197.615 236.812 199.146 238.379C200.162 239.432 201.693 239.392 202.894 239.405C205.217 239.471 207.038 239.445 209.124 239.445C239.758 239.471 270.392 239.55 301.026 239.471C340.173 239.366 379.32 239.261 418.467 239.142C417.227 236.878 416.21 234.469 415.379 231.968L415.392 231.981Z" fill="#1C5D66"/>
<path d="M491.403 263.311C380.864 263.245 270.339 263.166 159.801 263.061C159.418 263.061 159.048 262.521 158.23 261.902C164.433 256.729 171.323 252.464 176.325 246.106C181.38 239.683 185.446 232.733 187.953 224.927C190.448 217.134 191.662 209.144 190.685 200.983C189.709 192.901 187.795 185.069 183.862 177.816C179.955 170.615 175.098 164.152 168.868 158.848C143.58 137.352 103.878 139.05 81.4009 165.442C60.7582 189.689 57.3266 234.839 100.301 262.731C96.5793 262.929 94.5731 263.113 92.5669 263.113C65.3382 263.113 38.1094 263.1 10.8806 263.1C8.78206 263.1 6.68348 263.074 4.6113 263.297C2.90868 263.482 1.79999 264.601 1.48323 266.325C1.15326 268.102 2.43353 270.076 4.33413 270.353C6.39311 270.656 8.4917 270.735 10.5771 270.735C60.0587 270.84 109.554 271.024 159.035 270.998C270.181 270.932 381.326 270.827 492.459 270.721C492.089 268.247 491.733 265.785 491.39 263.311H491.403ZM127.556 260.296C97.4768 259.322 74.5904 236.26 74.1152 205.195C73.6005 171.642 104.287 150.594 128.969 151.687C157.385 150.265 183.453 175.96 183.492 204.708C183.532 236.418 155.313 261.204 127.57 260.296H127.556Z" fill="#1C5D66"/>
<path d="M890.899 263.296H477.505V270.734H890.899V263.296Z" fill="#1C5D66"/>
<path d="M524.967 162.006C524.967 160.308 524.967 158.807 524.967 157.32C524.927 117.356 524.888 77.3797 524.875 37.4162C524.875 33.6121 527.963 30.5187 531.764 30.5056C541.637 30.4924 551.509 30.5319 561.382 30.4661C563.269 30.4529 563.956 30.94 563.956 32.9408C563.89 70.2979 563.956 107.655 563.89 144.999C563.837 176.643 563.652 208.274 563.533 239.919C563.56 242.328 562.438 243.104 560.458 243.052C552.011 243.052 544.184 242.973 535.737 243.012C532.53 243.104 531.566 240.919 530.682 239.642C516.797 219.253 503.81 200.363 489.938 179.96C478.97 163.809 468.173 147.526 457.179 131.375C451.147 122.503 444.878 113.802 438.714 105.022C438.622 104.878 438.424 104.812 437.962 104.483C437.803 105.351 437.579 106.036 437.579 106.72C437.5 120.068 437.407 133.415 437.394 146.763C437.368 176.578 437.394 206.379 437.394 236.194C437.394 239.998 434.306 243.091 430.478 243.091C420.526 243.091 410.574 243.091 400.636 243.078C398.287 243.078 398.168 242.907 398.168 240.103C398.155 187.595 398.141 135.1 398.115 82.5923C398.115 66.1647 398.102 49.7238 398.102 33.2962C398.102 30.5451 398.128 30.5056 400.874 30.5056C410.931 30.5056 419.668 30.5582 429.726 30.5056C432.656 30.4398 434.424 31.2822 436.259 34.0201C442.04 42.3524 446.739 49.2236 452.52 57.5559C460.65 69.2712 468.609 81.1049 476.713 92.8333C490.255 112.446 503.849 132.02 517.417 151.62C519.608 154.779 521.773 157.965 523.977 161.124C524.201 161.44 524.584 161.65 524.967 161.98V162.006Z" fill="#1C5D66"/>
<path d="M1024.3 207.393C1019.24 218.555 1014.11 229.691 1009.08 240.867C1008.38 242.433 1007.52 243.078 1005.77 243.065C993.386 242.999 981.019 243.052 968.639 243.052C966.21 243.052 966.052 242.736 967.094 240.511C975.185 223.175 983.236 205.839 991.327 188.517C1005 159.281 1018.75 130.085 1032.36 100.81C1041.48 81.197 1050.38 61.4917 1059.51 41.8786C1061.04 38.6009 1062.81 35.2443 1065.21 32.5985C1070.72 26.5171 1079.68 27.0305 1085.08 33.3357C1088.97 37.8901 1091.41 43.287 1093.91 48.6445C1103.34 68.8763 1112.73 89.1476 1122.11 109.406C1134.8 136.759 1147.47 164.125 1160.15 191.478C1167.92 208.248 1175.7 225.005 1183.47 241.775C1183.6 242.051 1183.66 242.354 1183.84 242.946C1182.83 243.065 1181.97 243.262 1181.11 243.262C1168.61 243.275 1156.1 243.262 1143.6 243.275C1142.33 243.275 1141.65 242.788 1141.1 241.63C1134.47 227.585 1127.7 213.606 1121.14 199.534C1118.56 194.019 1116.54 188.253 1114.03 182.712C1107.49 168.285 1100.81 153.897 1094.16 139.51C1088.35 126.926 1082.52 114.355 1076.66 101.797C1076.19 100.797 1075.53 99.8756 1074.69 98.454C1064.12 122.266 1053.77 145.565 1043.3 169.14" fill="#1C5D66"/>
<path d="M587.568 159.505C587.119 157.228 586.552 154.964 586.235 152.674C583.899 136.206 584.783 119.963 589.482 103.93C596.675 79.3414 611.458 60.3864 632.654 46.236C647.411 36.3899 663.79 31.0852 681.463 29.6109C700.297 28.0445 718.445 31.0325 735.617 38.6145C751.138 45.4594 764.179 55.8056 774.975 68.982C783.633 79.5389 789.269 91.5832 793.651 104.352C795.842 110.749 794.575 116.475 790.774 121.806C785.891 128.664 778.908 132.481 771.082 134.995C768.323 135.877 765.459 136.417 762.674 137.22C761.433 137.575 761.103 137.246 761.024 136.022C760.312 125.478 757.791 115.395 752.96 105.957C744.328 89.1348 731.024 77.4854 713.153 71.1934C686.188 61.7028 657.27 71.1803 639.069 92.6099C631.427 101.614 626.425 111.894 623.864 123.359C623.534 124.82 622.901 125.386 621.396 125.729C605.188 129.441 594.537 139.352 589.02 154.872C588.743 155.648 588.637 156.491 588.465 157.307C588.32 158.031 588.215 158.755 588.083 159.479C587.911 159.479 587.753 159.505 587.581 159.505H587.568Z" fill="#1C5D66"/>
<path d="M622.043 138.274C622.399 141.564 622.663 144.737 623.112 147.896C624.986 161.098 629.909 172.945 638.911 182.976C646.157 191.058 654.247 198.14 664.45 202.194C686.901 211.105 708.507 209.605 728.991 196.31C743.351 186.99 752.34 173.735 757.355 157.663C758.305 154.609 759.638 153.069 763.044 152.108C778.275 147.79 789.837 138.747 796.647 124.202C796.793 123.886 797.043 123.61 797.545 122.873C797.822 125.887 798.139 128.388 798.284 130.902C799.221 148.001 797.611 164.784 790.959 180.738C782.023 202.207 767.69 219.109 747.562 231.114C737.663 237.024 727.064 240.881 715.872 243.461C702.172 246.62 688.485 246.936 674.626 244.658C661.612 242.526 649.113 238.959 637.683 232.272C620.169 222.018 606.218 208.302 597.071 190.071C595.065 186.056 593.494 181.831 591.752 177.697C590.736 175.288 590.907 172.893 591.435 170.352C592.861 163.507 595.448 157.255 600.054 151.884C605.347 145.711 614.506 139.945 622.056 138.274H622.043Z" fill="#E0994B"/>
<path d="M787.329 30.6902C788.583 30.6244 789.467 30.5454 790.338 30.5322C802.785 30.4927 815.218 30.5059 827.651 30.4138C829.684 30.4006 830.66 31.1246 831.479 33.0069C838.632 49.3424 845.971 65.599 853.111 81.9345C861.664 101.508 869.926 121.2 878.558 140.734C888.351 162.901 896.878 185.503 903.913 208.67C905.642 214.369 907.608 220.043 908.717 225.874C910.829 237.023 901.22 247.225 889.949 245.935C884.431 245.303 880.195 242.183 877.806 237.142C875.338 231.929 873.239 226.532 870.942 221.241C855.355 185.476 839.833 149.685 824.153 113.961C812.288 86.9365 800.198 60.0046 788.214 33.0332C787.936 32.4014 787.712 31.7301 787.303 30.677L787.329 30.6902Z" fill="#1C5D66"/>
<path d="M916.491 212.776C915.989 211.618 915.567 210.894 915.369 210.117C911.119 193.953 905.338 178.302 899.306 162.743C898.528 160.742 898.514 158.965 899.372 157.017C903.345 148.039 907.265 139.036 911.159 130.032C919.922 109.774 928.673 89.5159 937.397 69.2446C942.782 56.7527 948.128 44.2477 953.447 31.7426C953.869 30.7554 954.41 30.3868 955.466 30.4C968.48 30.4658 981.507 30.479 994.521 30.5448C996.725 30.5448 997.055 31.0055 996.329 32.6509C992.132 42.1679 987.961 51.6849 983.751 61.1755C970.816 90.332 957.855 119.462 944.947 148.619C935.695 169.509 926.522 190.425 917.309 211.341C917.164 211.684 916.94 211.999 916.478 212.776H916.491Z" fill="#1C5D66"/>
</svg>
